<svg id="Livello_1" data-name="Livello 1" xmlns="http://www.w3.org/2000/svg" viewBox="0 0 508.47 91.78"><title>vicino-ical-logo-black</title><polygon points="295.64 50.4 289.26 48.69 288.2 52.62 298.52 55.38 299.33 52.36 299.57 51.45 300.63 47.49 296.7 46.43 295.64 50.4"/><polygon points="307.15 43.39 302.03 42.01 303.41 36.86 298.25 35.47 296.87 40.63 301.99 42 300.61 47.16 305.77 48.54 307.15 43.39"/><rect x="285.8" y="63.67" width="4.07" height="4.07" transform="matrix(0.26, -0.97, 0.97, 0.26, 144.83, 310.06)"/><rect x="288.69" y="68.66" width="4.07" height="4.07" transform="translate(142.28 316.61) rotate(-75.02)"/><path d="M301.21,48.26l-11.07-3-3,11.06,11.07,3ZM296,55.5l-5-1.34,1.35-5,5,1.34Z" transform="translate(-5 -16.64)"/><rect x="290.78" y="60.77" width="4.07" height="4.07" transform="translate(151.32 312.72) rotate(-74.99)"/><path d="M304.05,76.93l6.66,1.78,1.79-6.66-6.66-1.79Zm3.07-4.43,3.15.84-.84,3.14-3.15-.84Z" transform="translate(-5 -16.64)"/><path d="M345.2,36.36,273.69,17.2a16.23,16.23,0,0,0-19.88,11.47L243.05,68.83A16.23,16.23,0,0,0,254.53,88.7L326,107.86a16.23,16.23,0,0,0,19.88-11.47l10.75-40.16A16.22,16.22,0,0,0,345.2,36.36Zm-66.62-3.53,1-3.65,3.65,1L295,33.31,294,37l-11.76-3.15-3.15,11.76-3.65-1ZM281,85.38l-11.76-3.15-3.65-1,1-3.64,3.15-11.76,3.64,1-3.15,11.75L282,81.74Zm20.54-4.74-13.39-3.59,1-3.58-4.63-1.24-1,3.59-3.8-1,1.16-4.34,3.3.88L285.37,67l-3.31-.88,1-3.87,3.3.88.94-3.49-3.3-.88,4.37-16.32,31.47,8.43-4.19,15.66-5.44-1.45L309,69.57,314.48,71l-2.59,9.65-9.65-2.59Zm19.59,11.59-1,3.64-3.65-1-11.75-3.15,1-3.65,11.76,3.15,3.15-11.76,3.65,1Zm12-44.78L330,59.21l-3.64-1,3.15-11.76-11.76-3.15,1-3.64,11.75,3.15,3.65,1Z" transform="translate(-5 -16.64)"/><path d="M56.81,43.8A4.08,4.08,0,0,1,57,48L35.88,92.56q-1.49,3.28-4.58,3.29a4.83,4.83,0,0,1-2.79-.75,6.45,6.45,0,0,1-2-2.54L5.4,48A3.89,3.89,0,0,1,5,46.24a4.4,4.4,0,0,1,2.79-4.09,4.25,4.25,0,0,1,2.09-.49,4.46,4.46,0,0,1,4,2.49L31.2,81.51,48.33,44.15a4.28,4.28,0,0,1,1.75-1.85,4.89,4.89,0,0,1,2.44-.64,5.1,5.1,0,0,1,2.29.49A4.76,4.76,0,0,1,56.81,43.8Z" transform="translate(-5 -16.64)"/><path d="M59.94,94.51a5,5,0,0,1-1.44-3.64V46.54a4.9,4.9,0,0,1,1.44-3.69,5.06,5.06,0,0,1,8.72,3.69V90.87a5,5,0,0,1-1.4,3.64,5.37,5.37,0,0,1-7.32,0Z" transform="translate(-5 -16.64)"/><path d="M83.64,92.76a25.56,25.56,0,0,1-9.82-9.91,28.49,28.49,0,0,1-3.53-14.1,29.46,29.46,0,0,1,3.43-14.29,24.83,24.83,0,0,1,9.62-9.87,27.59,27.59,0,0,1,13.94-3.53,24.77,24.77,0,0,1,19.53,9,3.76,3.76,0,0,1,1,2.59,4.39,4.39,0,0,1-2.19,3.69,3.91,3.91,0,0,1-2.3.7,5,5,0,0,1-3.88-1.8A15.86,15.86,0,0,0,104,51.27,17.11,17.11,0,0,0,97.28,50a16.24,16.24,0,0,0-12.45,5.13Q80,60.3,80.05,68.75a20.32,20.32,0,0,0,2.24,9.62A16.48,16.48,0,0,0,88.57,85a17.76,17.76,0,0,0,9.21,2.39q6.78,0,11-3.48a6.25,6.25,0,0,1,3.69-1.4,4.18,4.18,0,0,1,2.58.9,4.62,4.62,0,0,1,1.9,3.58,3.69,3.69,0,0,1-1.2,2.69q-7.17,6.67-17.93,6.68A28,28,0,0,1,83.64,92.76Z" transform="translate(-5 -16.64)"/><path d="M120.88,94.51a5,5,0,0,1-1.44-3.64V46.54a4.9,4.9,0,0,1,1.44-3.69,5.51,5.51,0,0,1,7.32,0,5,5,0,0,1,1.4,3.69V90.87a5,5,0,0,1-1.4,3.64,5.37,5.37,0,0,1-7.32,0Z" transform="translate(-5 -16.64)"/><path d="M171.65,44a21.1,21.1,0,0,1,8.57,8.71,28.82,28.82,0,0,1,3.09,13.8V91a5.09,5.09,0,1,1-10.17,0V66.46q0-8.07-4.33-12.2T157.3,50.12a17,17,0,0,0-7.62,1.7,13.53,13.53,0,0,0-5.38,4.58,11.38,11.38,0,0,0-1.94,6.48V91A5,5,0,0,1,141,94.61,5.11,5.11,0,0,1,132.2,91V46.54a4.9,4.9,0,0,1,1.44-3.69,5.53,5.53,0,0,1,7.33,0,5,5,0,0,1,1.39,3.69v1.09a22.25,22.25,0,0,1,7.57-4.93A26.61,26.61,0,0,1,171.65,44Z" transform="translate(-5 -16.64)"/><path d="M198.82,92.81A25,25,0,0,1,189.06,83a28.79,28.79,0,0,1-3.49-14.25,29,29,0,0,1,3.49-14.34,24.91,24.91,0,0,1,9.76-9.82,28.57,28.57,0,0,1,14.25-3.53,28.1,28.1,0,0,1,14.09,3.53,25.38,25.38,0,0,1,9.76,9.82,28.66,28.66,0,0,1,3.54,14.34A28.79,28.79,0,0,1,237,83a25,25,0,0,1-9.71,9.81,30.33,30.33,0,0,1-28.44,0ZM222.18,85a16.55,16.55,0,0,0,6.28-6.62,20.32,20.32,0,0,0,2.24-9.62,20.57,20.57,0,0,0-2.24-9.66,16.49,16.49,0,0,0-6.28-6.67,18.51,18.51,0,0,0-18.23,0,16.81,16.81,0,0,0-6.33,6.67,20.24,20.24,0,0,0-2.29,9.66,19.88,19.88,0,0,0,2.29,9.62A16.88,16.88,0,0,0,204,85a18.58,18.58,0,0,0,18.23,0Z" transform="translate(-5 -16.64)"/><path d="M373.79,42.25a6.44,6.44,0,0,1-4.56-11,6.44,6.44,0,1,1,9.11,9.11A6.22,6.22,0,0,1,373.79,42.25Zm0,62.3a4.86,4.86,0,0,1-5-5V56a4.78,4.78,0,0,1,1.42-3.62A4.93,4.93,0,0,1,373.79,51a4.72,4.72,0,0,1,5,5V99.55a4.93,4.93,0,0,1-1.37,3.58A4.82,4.82,0,0,1,373.79,104.55Z" transform="translate(-5 -16.64)" style="fill:#009ee0"/><path d="M412.19,104.94a27.09,27.09,0,0,1-14-3.58,25.66,25.66,0,0,1-9.6-9.69,27.6,27.6,0,0,1-3.48-13.87,28.47,28.47,0,0,1,3.43-14.1,24.92,24.92,0,0,1,9.4-9.65,26.76,26.76,0,0,1,13.72-3.48,25.06,25.06,0,0,1,10.58,2.21,25.55,25.55,0,0,1,8.62,6.61,3.56,3.56,0,0,1,1,3.23,5.14,5.14,0,0,1-2.16,2.94,3.74,3.74,0,0,1-3,.64,5.91,5.91,0,0,1-3-1.72,15.78,15.78,0,0,0-11.95-5.09,16.81,16.81,0,0,0-8.82,2.3,16,16,0,0,0-6,6.42,20.67,20.67,0,0,0-2.15,9.69,19.6,19.6,0,0,0,2.2,9.41,16.77,16.77,0,0,0,6.13,6.51,17.06,17.06,0,0,0,9.11,2.4,19.6,19.6,0,0,0,6-.83,14.26,14.26,0,0,0,4.75-2.6,6,6,0,0,1,3.23-1.42,3.93,3.93,0,0,1,2.94.93A4.71,4.71,0,0,1,431,95.29a3.66,3.66,0,0,1-1.17,3.09Q422.77,104.94,412.19,104.94Z" transform="translate(-5 -16.64)" style="fill:#e2007a"/><path d="M459.6,104.94a23.56,23.56,0,0,1-12.84-3.58,25.44,25.44,0,0,1-9-9.69,28.9,28.9,0,0,1-3.28-13.87,27.31,27.31,0,0,1,3.57-13.91,27.05,27.05,0,0,1,46.83,0,27.31,27.31,0,0,1,3.57,13.91h-3.82a28.9,28.9,0,0,1-3.28,13.87,25.36,25.36,0,0,1-9,9.69A23.55,23.55,0,0,1,459.6,104.94Zm2-8.82a16.7,16.7,0,0,0,8.91-2.4,17,17,0,0,0,6.17-6.56,19.36,19.36,0,0,0,2.25-9.36,19.58,19.58,0,0,0-2.25-9.45,17.09,17.09,0,0,0-6.17-6.56,17.66,17.66,0,0,0-17.78,0,17.42,17.42,0,0,0-6.27,6.56,19.27,19.27,0,0,0-2.3,9.45,19.06,19.06,0,0,0,2.3,9.36,17.34,17.34,0,0,0,6.27,6.56A16.79,16.79,0,0,0,461.56,96.12Zm21.94,8.52a4.86,4.86,0,0,1-5-5v-15l1.86-10.38,8.13,3.52V99.65a4.85,4.85,0,0,1-5,5Z" transform="translate(-5 -16.64)" style="fill:#009036"/><path d="M506.61,104.55A13,13,0,0,1,499,102.2a15.63,15.63,0,0,1-5.19-6.42,22.28,22.28,0,0,1-1.86-9.36V32.94a4.9,4.9,0,1,1,9.8,0V86.42a11.69,11.69,0,0,0,1.37,6,4,4,0,0,0,3.52,2.35h2.45a4.09,4.09,0,0,1,3.19,1.37,5.14,5.14,0,0,1,1.22,3.53,4.21,4.21,0,0,1-1.86,3.53,7.91,7.91,0,0,1-4.8,1.37Z" transform="translate(-5 -16.64)" style="fill:#f29400"/></svg>